<svg id="Component_1_1" data-name="Component 1 – 1" xmlns="http://www.w3.org/2000/svg" width="240.001" height="79.942" viewBox="0 0 240.001 79.942">
  <path id="Path_1" data-name="Path 1" d="M580.068,579.1h10.063l1.695,4.772H596.7l-8.645-24.206h-5.775l-8.61,24.206h4.738Zm4.911-14.316h.276l3.562,10.2h-7.4Z" transform="translate(-475.401 -547.353)" fill="#fff"/>
  <path id="Path_2" data-name="Path 2" d="M627.115,579.184c0,3.907,2.283,6.051,6.052,6.051h3.354V581.5H634.1a2.228,2.228,0,0,1-2.49-2.489v-8.368h5.014v-3.6h-5.014v-5.014h-4.219V565.7a1.254,1.254,0,0,1-1.314,1.383h-2.04v3.562h3.077Z" transform="translate(-504.446 -548.718)" fill="#fff"/>
  <path id="Path_3" data-name="Path 3" d="M666.445,591.9c4.7,0,7.954-2.42,8.852-6.121h-4.184a5.1,5.1,0,0,1-9.476-2.11h13.833v-1.418c0-5.117-3.182-9.44-9.026-9.44-5.325,0-9.164,3.907-9.164,9.648C657.281,587.892,661.085,591.9,666.445,591.9Zm0-15.492a4.43,4.43,0,0,1,4.737,4.08h-9.475A4.676,4.676,0,0,1,666.445,576.411Z" transform="translate(-523.615 -554.937)" fill="#fff"/>
  <path id="Path_4" data-name="Path 4" d="M710.976,575.982v-20.4h-4.5V576.4c0,3.216,1.8,5.117,4.979,5.117h1.695v-3.941h-.726C711.495,577.573,710.976,577.02,710.976,575.982Z" transform="translate(-551.987 -544.999)" fill="#fff"/>
  <path id="Path_5" data-name="Path 5" d="M730.1,561.046a2.615,2.615,0,1,0-2.767-2.628A2.543,2.543,0,0,0,730.1,561.046Z" transform="translate(-564.012 -545.14)" fill="#fff"/>
  <rect id="Rectangle_5" data-name="Rectangle 5" width="4.495" height="18.189" transform="translate(163.844 18.327)" fill="#fff"/>
  <path id="Path_6" data-name="Path 6" d="M754.661,591.9c4.7,0,7.953-2.42,8.853-6.121h-4.185a5.1,5.1,0,0,1-9.476-2.11h13.833v-1.418c0-5.117-3.182-9.44-9.025-9.44-5.326,0-9.165,3.907-9.165,9.648C745.5,587.892,749.3,591.9,754.661,591.9Zm0-15.492a4.431,4.431,0,0,1,4.737,4.08h-9.475A4.676,4.676,0,0,1,754.661,576.411Z" transform="translate(-574.483 -554.937)" fill="#fff"/>
  <path id="Path_7" data-name="Path 7" d="M799.607,576.756h-.276v-2.974h-4.254v18.189h4.5v-8.61c0-3.251,1.729-5.36,4.6-5.36h1.867v-4.288h-1.66A5.141,5.141,0,0,0,799.607,576.756Z" transform="translate(-603.074 -555.454)" fill="#fff"/>
  <path id="Path_8" data-name="Path 8" d="M581.832,636.182h-8.161v24.206h8.161c7.711,0,12.346-4.668,12.346-12.172C594.178,641.161,589.544,636.182,581.832,636.182Zm-.174,20.195H578.27V640.193h3.389c4.289,0,7.746,2.594,7.746,8.023C589.4,653.887,585.912,656.377,581.659,656.377Z" transform="translate(-475.401 -591.478)" fill="#fff"/>
  <path id="Path_9" data-name="Path 9" d="M635.355,649.332c-5.325,0-9.164,3.908-9.164,9.648,0,5.429,3.8,9.44,9.164,9.44,4.7,0,7.954-2.42,8.853-6.12h-4.184a5.1,5.1,0,0,1-9.476-2.11H644.38v-1.417C644.38,653.654,641.2,649.332,635.355,649.332Zm-4.737,7.677a4.674,4.674,0,0,1,4.737-4.08,4.431,4.431,0,0,1,4.737,4.08Z" transform="translate(-505.688 -599.06)" fill="#fff"/>
  <path id="Path_10" data-name="Path 10" d="M683.545,653.413a4.448,4.448,0,0,1,4.357,3.078h4.6c-.692-4.288-4.323-7.159-8.991-7.159a9.544,9.544,0,0,0,0,19.088c4.668,0,8.265-2.8,8.956-7.02h-4.6a4.291,4.291,0,0,1-4.288,2.939c-2.974,0-5.014-2.317-5.014-5.463C678.565,655.833,680.5,653.413,683.545,653.413Z" transform="translate(-533.256 -599.06)" fill="#fff"/>
  <path id="Path_11" data-name="Path 11" d="M732.227,649.332a9.545,9.545,0,1,0,9.683,9.545A9.3,9.3,0,0,0,732.227,649.332Zm0,15.008c-2.974,0-5.117-2.247-5.117-5.463,0-3.147,2.109-5.464,5.117-5.464a5.131,5.131,0,0,1,5.118,5.464C737.345,662.058,735.2,664.34,732.227,664.34Z" transform="translate(-561.248 -599.06)" fill="#fff"/>
  <path id="Path_12" data-name="Path 12" d="M782.3,649.332c-5.325,0-9.163,3.908-9.163,9.648,0,5.429,3.8,9.44,9.163,9.44,4.7,0,7.954-2.42,8.853-6.12h-4.184a5.1,5.1,0,0,1-9.475-2.11h13.832v-1.417C791.321,653.654,788.14,649.332,782.3,649.332Zm-4.737,7.677a4.675,4.675,0,0,1,4.737-4.08,4.431,4.431,0,0,1,4.738,4.08Z" transform="translate(-590.42 -599.06)" fill="#fff"/>
  <path id="Path_13" data-name="Path 13" d="M831.434,649.332a5.69,5.69,0,0,0-5.118,2.663h-.242v-2.213h-4.288v18.189h4.5V657.563a3.769,3.769,0,0,1,3.735-4.011,3.416,3.416,0,0,1,3.493,3.7v10.72H838v-11.9C838,652.2,835.514,649.332,831.434,649.332Z" transform="translate(-618.475 -599.06)" fill="#fff"/>
  <path id="Path_14" data-name="Path 14" d="M883.675,658.772c0-5.118-3.181-9.44-9.025-9.44-5.325,0-9.163,3.908-9.163,9.648,0,5.429,3.8,9.44,9.163,9.44,4.7,0,7.954-2.42,8.852-6.12h-4.184a5.1,5.1,0,0,1-9.475-2.11h13.832Zm-13.762-1.763a4.674,4.674,0,0,1,4.737-4.08,4.431,4.431,0,0,1,4.737,4.08Z" transform="translate(-643.674 -599.06)" fill="#fff"/>
  <path id="Path_15" data-name="Path 15" d="M341.551,610.527h79.942V530.585H341.551Zm7.136-72.806h65.671v65.67H348.687Z" transform="translate(-341.551 -530.585)" fill="#fff"/>
  <path id="Path_16" data-name="Path 16" d="M425.686,629.366V610.646H418.55v2.395h-.538a9.051,9.051,0,0,0-7.136-3.03c-6.6,0-11.828,5.718-11.828,13.489,0,7.723,5.279,13.539,11.878,13.539,3.714,0,5.767-1.417,7.136-3.372h.537a2.755,2.755,0,0,0,2.835,2.737h8.872v-5.963h-3.447A1.054,1.054,0,0,1,425.686,629.366Zm-13.2.831c-3.422,0-6.208-2.591-6.208-6.647s2.737-6.648,6.158-6.648c3.372,0,6.208,2.4,6.208,6.648C418.648,627.166,416.2,630.2,412.49,630.2Z" transform="translate(-374.707 -576.386)" fill="#fff"/>
  <rect id="Rectangle_6" data-name="Rectangle 6" width="7.136" height="10.768" transform="translate(43.844 19.288)" fill="#fff"/>
</svg>
