<?xml version="1.0" standalone="no"?>
<!DOCTYPE svg PUBLIC "-//W3C//DTD SVG 20010904//EN"
 "http://www.w3.org/TR/2001/REC-SVG-20010904/DTD/svg10.dtd">
<svg version="1.0" xmlns="http://www.w3.org/2000/svg"
 width="838.000000pt" height="838.000000pt" viewBox="0 0 838.000000 838.000000"
 preserveAspectRatio="xMidYMid meet">
<metadata>
Created by potrace 1.14, written by Peter Selinger 2001-2017
</metadata>
<g transform="translate(0.000000,838.000000) scale(0.100000,-0.100000)"
fill="#000000" stroke="none">
<path d="M7 8365 c-2 -5 -3 -1889 -3 -4185 l1 -4175 4188 -3 4187 -2 -2 4187
-3 4188 -4182 0 c-2783 0 -4184 -3 -4186 -10z m7621 -4178 l2 -3437 -3437 2
-3438 3 0 3430 c-1 1887 2 3432 6 3435 4 3 1550 5 3436 5 l3428 0 3 -3438z"/>
<path d="M4601 6340 c-5 -11 -7 -1013 -2 -1101 1 -14 40 -16 374 -15 l372 1 2
563 c1 309 -1 563 -5 563 -4 1 -171 2 -370 3 -316 1 -365 -1 -371 -14z"/>
<path d="M3757 4854 c-1 -1 -36 -4 -77 -8 -42 -3 -90 -10 -108 -15 -18 -5 -32
-8 -32 -6 0 2 -18 -2 -40 -10 -22 -8 -43 -14 -45 -14 -12 1 -121 -43 -175 -70
-315 -157 -546 -448 -664 -836 -8 -28 -18 -66 -21 -85 -3 -19 -10 -53 -15 -75
-12 -56 -23 -194 -24 -300 -1 -450 178 -865 492 -1137 61 -53 188 -134 267
-170 185 -84 308 -108 525 -103 220 5 358 43 496 137 65 44 159 132 194 184
17 23 57 37 66 22 3 -5 8 -24 11 -41 14 -90 79 -172 170 -214 l58 -27 498 -1
497 -1 1 36 c2 180 0 583 -5 587 -3 3 -87 5 -188 5 -199 0 -240 7 -270 49 -19
25 -19 58 -19 1025 l0 999 -367 0 c-202 0 -371 -3 -377 -7 -6 -3 -9 -55 -9
-125 l2 -119 -24 0 c-16 0 -46 20 -86 59 -181 173 -384 250 -686 260 -24 1
-44 1 -45 1z m356 -743 c312 -75 502 -343 492 -694 -4 -115 -10 -155 -44 -251
-67 -189 -216 -337 -401 -397 -96 -32 -262 -35 -361 -8 -167 46 -285 131 -374
272 -145 230 -145 569 1 804 115 186 321 294 549 288 50 -1 112 -7 138 -14z"/>
</g>
</svg>
